# This file uses centimeters as units for non-parametric coordinates.

mtllib low.mtl
g default
v 6.128310 -7.820249 1.938275
v 5.850530 -1.500098 1.938275
v 1.379252 -1.638681 1.938275
v 0.872371 -1.194204 1.938275
v 1.744743 -2.684395 1.938275
v 0.000000 -0.939652 1.938275
v 1.744743 -3.572140 1.938275
v -0.872371 -1.194204 1.938275
v -1.379252 -1.638681 1.938275
v 2.551574 -7.820249 1.938275
v -1.744743 -3.572140 1.938275
v -1.744743 -2.684395 1.938275
v 2.212949 -6.556470 1.938275
v 1.277645 -5.621170 1.938275
v 0.000000 -5.278824 1.938275
v -5.850530 -1.500098 1.938275
v -1.277645 -5.621170 1.938275
v -2.212946 -6.556470 1.938275
v -2.551574 -7.820249 1.938275
v -6.128310 -7.820249 1.938275
v 0.000000 -3.572140 1.938275
v 6.128309 -3.572138 1.938275
v -6.128309 -3.572139 1.938275
v 0.000000 0.921117 1.938275
v -3.488036 0.921117 1.938275
v 3.488037 0.921117 1.938275
v 3.488036 0.921117 1.744447
v -3.488036 0.921117 1.744447
v -1.744018 0.921117 1.938275
v 1.744018 0.921117 1.938274
v 6.128310 -7.820249 -1.938275
v 5.850530 -1.500098 -1.938275
v 1.379252 -1.638681 -1.938275
v 0.872371 -1.194204 -1.938275
v 1.744743 -2.684395 -1.938274
v 0.000000 -0.939652 -1.938274
v 1.744743 -3.572140 -1.938275
v -0.872371 -1.194204 -1.938274
v -1.379251 -1.638681 -1.938274
v 2.551574 -7.820249 -1.938275
v -1.744743 -3.572140 -1.938274
v -1.744743 -2.684395 -1.938274
v 2.212947 -6.556470 -1.938274
v 1.277645 -5.621170 -1.938275
v 0.000000 -5.278824 -1.938275
v -5.850530 -1.500098 -1.938275
v -1.277645 -5.621170 -1.938275
v -2.212946 -6.556470 -1.938275
v -2.551574 -7.820249 -1.938275
v -6.128310 -7.820249 -1.938275
v 0.000000 -3.572140 -1.938275
v 6.128309 -3.572138 -1.938274
v -6.128309 -3.572139 -1.938275
v 0.000000 0.921117 -1.938275
v -3.488036 0.921116 -1.938275
v 3.488036 0.921117 -1.938274
v 3.488036 0.921117 -1.744447
v -3.488037 0.921117 -1.744447
v -1.744018 0.921117 -1.938275
v 1.744018 0.921117 -1.938274
v -3.883371 -3.572140 1.938275
v -3.880535 -2.025380 1.938275
v -2.588752 -0.371231 1.938275
v -1.357942 -0.001610 1.938275
v -0.000003 0.124102 1.938275
v 1.357931 -0.001603 1.938274
v 2.588732 -0.371217 1.938274
v 3.880434 -2.025321 1.938275
v 3.883371 -3.572140 1.938274
v -2.645589 -3.572140 1.938275
v -2.655994 -2.684394 1.938275
v -1.990911 -1.022294 1.938275
v -1.212247 -0.477373 1.938275
v -0.000006 -0.221538 1.938275
v 1.212216 -0.477350 1.938274
v 1.990813 -1.022214 1.938274
v 2.655174 -2.683913 1.938275
v 2.645589 -3.572140 1.938275
v 3.883371 -3.572140 -1.938274
v 3.880434 -2.025321 -1.938275
v 2.588732 -0.371217 -1.938274
v 1.357931 -0.001603 -1.938274
v -0.000003 0.124102 -1.938275
v -1.357942 -0.001610 -1.938274
v -2.588752 -0.371231 -1.938274
v -3.880535 -2.025379 -1.938274
v -3.883371 -3.572140 -1.938275
v -2.645589 -3.572140 -1.938275
v -2.655994 -2.684395 -1.938275
v -1.990911 -1.022294 -1.938275
v -1.212247 -0.477373 -1.938275
v -0.000006 -0.221539 -1.938274
v 1.212216 -0.477350 -1.938274
v 1.990813 -1.022213 -1.938274
v 2.655174 -2.683914 -1.938275
v 2.639976 -3.572140 -1.938274
v 5.009149 0.247139 1.938274
v 5.009149 0.247139 -1.938274
v 3.327971 -1.105609 -1.938274
v 2.466790 -1.730019 -1.938274
v 1.697204 -2.206607 -1.938275
v 1.697204 -2.206607 1.938275
v 2.466790 -1.730019 1.938274
v 3.327971 -1.105609 1.938274
v -5.009149 0.247139 1.938275
v -5.009149 0.247140 -1.938275
v -3.328007 -1.105631 -1.938275
v -2.466790 -1.730019 -1.938275
v -1.697204 -2.206607 -1.938275
v -1.697204 -2.206607 1.938275
v -2.466790 -1.730019 1.938275
v -3.328007 -1.105631 1.938275
v -1.277645 -5.621170 2.688931
v -1.744743 -3.572140 2.688931
v 0.000000 -5.278824 2.688931
v 0.000000 -3.572140 2.688931
v 1.277645 -5.621170 2.688931
v 1.744743 -3.572140 2.688931
v 6.128310 -7.820249 2.688931
v 2.551574 -7.820249 2.688931
v 6.128309 -3.572138 2.688931
v 3.883371 -3.572140 2.688931
v -6.128310 -7.820249 2.688931
v -6.128309 -3.572139 2.688931
v -2.551574 -7.820249 2.688931
v -3.883371 -3.572140 2.688931
v -2.212946 -6.556470 2.688931
v -2.645589 -3.572140 2.688931
v 2.645589 -3.572140 2.688931
v 2.212949 -6.556470 2.688931
v -2.645589 -3.572140 2.309886
v -2.655994 -2.684394 2.309886
v -1.744743 -3.572140 2.309886
v -1.744743 -2.684395 2.309886
v -1.697204 -2.206607 2.309886
v -2.466790 -1.730019 2.309886
v -1.990911 -1.022294 2.309886
v -1.212247 -0.477373 2.309886
v -1.379252 -1.638681 2.309886
v -0.872372 -1.194204 2.309887
v -0.000006 -0.221538 2.309886
v 0.000000 -0.939652 2.309886
v 1.212216 -0.477349 2.309887
v 0.872372 -1.194204 2.309886
v 1.990813 -1.022214 2.309886
v 1.379252 -1.638681 2.309886
v 1.697204 -2.206607 2.309886
v 2.466790 -1.730019 2.309886
v 2.655174 -2.683913 2.309886
v 2.645589 -3.572140 2.309886
v 1.744743 -2.684395 2.309886
v 1.744743 -3.572140 2.309886
v 3.883371 -3.572140 2.313603
v 6.128309 -3.572138 2.313603
v 6.128310 -7.820249 2.313603
v 2.551574 -7.820249 2.313603
v 2.212949 -6.556470 2.313603
v 1.277645 -5.621170 2.313603
v 0.000000 -5.278824 2.313603
v -1.277645 -5.621170 2.313603
v -2.212946 -6.556470 2.313603
v -2.551574 -7.820249 2.313603
v -6.128310 -7.820249 2.313603
v -6.128309 -3.572139 2.313603
v -3.883371 -3.572140 2.313603
v 1.744018 0.921117 -1.744447
v 0.000000 0.921117 -1.744447
v -1.744018 0.921117 -1.744447
v 1.744018 0.921117 1.744447
v 0.000000 0.921117 1.744447
v -1.744018 0.921117 1.744447
v 1.744018 0.921117 1.656936
v 1.744018 0.921117 -1.656936
v 3.288036 0.921117 1.656936
v 3.288036 0.921117 -1.656936
v 0.000000 0.921117 1.656936
v 0.000000 0.921117 -1.656936
v -1.744018 0.921117 1.656936
v -1.744018 0.921117 -1.656936
v -3.288036 0.921117 1.656936
v -3.288036 0.921117 -1.656936
v 1.744018 1.380284 1.656936
v 1.744018 1.380284 -1.656936
v 3.288036 1.380284 1.656936
v 3.288036 1.380284 -1.656936
v 0.000000 1.380284 1.656936
v 0.000000 1.380284 -1.656936
v -1.744018 1.380284 1.656936
v -1.744018 1.380284 -1.656936
v -3.288036 1.380284 1.656936
v -3.288036 1.380284 -1.656936
v 0.000000 1.380284 1.244447
v 0.000000 1.380284 -1.244447
v 1.444018 1.380284 1.244447
v 1.444018 1.380284 -1.244447
v -1.444018 1.380284 1.244447
v -1.444018 1.380284 -1.244447
v 0.000000 8.667460 1.244447
v 0.000000 8.667460 -1.244447
v 1.444018 8.667460 1.244447
v 1.444018 8.667460 -1.244448
v -1.444018 8.667460 1.244447
v -1.444018 8.667460 -1.244447
v 0.872371 -1.194204 -1.162965
v 1.379252 -1.638681 -1.162965
v 1.697204 -2.206607 -1.162965
v 1.744743 -2.684395 -1.162964
v 1.744743 -3.572140 -1.162965
v 0.000000 -3.572140 -1.162965
v -1.744743 -3.572140 -1.162964
v -1.744743 -2.684395 -1.162964
v -1.697204 -2.206607 -1.162965
v -1.379251 -1.638681 -1.162964
v -0.872371 -1.194204 -1.162964
v 0.000000 -0.939652 -1.162964
v 0.000000 -1.638681 -1.938274
v 0.000000 -2.206607 -1.938275
v 0.000000 -2.684395 -1.938274
v 0.000000 -2.684395 -1.162964
v 0.000000 -2.206607 -1.162964
v 0.000000 -1.638680 -1.162964
v 5.009149 0.247139 -1.744447
v 5.850530 -1.500098 -1.744447
v 6.128309 -3.572138 -1.744447
v 6.128310 -7.820249 -1.744447
v 2.551574 -7.820249 -1.744447
v 2.212947 -6.556470 -1.744447
v 1.277645 -5.621170 -1.744447
v 0.000000 -5.278824 -1.744447
v -1.277645 -5.621170 -1.744447
v -2.212946 -6.556470 -1.744447
v -2.551574 -7.820249 -1.744447
v -6.128310 -7.820249 -1.744447
v -6.128309 -3.572139 -1.744447
v -5.850530 -1.500098 -1.744447
v -5.009149 0.247139 -1.744447
v -5.009149 0.247139 1.744447
v -5.850530 -1.500098 1.744447
v -6.128309 -3.572139 1.744447
v -6.128310 -7.820249 1.744447
v -2.551574 -7.820249 1.744447
v -2.212946 -6.556470 1.744447
v -1.277645 -5.621170 1.744447
v 0.000000 -5.278824 1.744447
v 1.277645 -5.621170 1.744447
v 2.212949 -6.556470 1.744447
v 2.551574 -7.820249 1.744447
v 6.128310 -7.820249 1.744447
v 6.128309 -3.572138 1.744447
v 5.850530 -1.500098 1.744447
v 5.009149 0.247139 1.744447
v 0.000000 8.667460 0.775931
v 0.000000 8.667460 -0.775930
v 0.900366 8.667460 0.775930
v 0.900366 8.667460 -0.775930
v -0.900366 8.667460 0.775931
v -0.900366 8.667460 -0.775930
v 0.000000 4.563342 0.775931
v 0.000000 4.563342 -0.775930
v 0.900366 4.563342 0.775930
v 0.900366 4.563342 -0.775930
v -0.900366 4.563342 0.775931
v -0.900366 4.563342 -0.775930
v 0.000000 -3.572140 2.309886
vt 0.160380 0.314520
vt 0.085560 0.296260
vt 0.096590 0.249550
vt 0.155870 0.249880
vt 0.086240 0.202900
vt 0.161730 0.185200
vt 0.006300 0.160420
vt 0.000990 0.032470
vt 0.152700 0.026960
vt 0.156300 0.107960
vt 0.153220 0.472090
vt 0.000940 0.467020
vt 0.005710 0.338850
vt 0.156080 0.391310
vt 0.292720 0.699340
vt 0.285790 0.699330
vt 0.285800 0.624610
vt 0.292730 0.624610
vt 0.285820 0.472780
vt 0.292750 0.472780
vt 0.825360 0.538310
vt 0.818430 0.538310
vt 0.818440 0.410470
vt 0.825370 0.410470
vt 0.818440 0.363710
vt 0.825370 0.363710
vt 0.818440 0.316440
vt 0.825370 0.316440
vt 0.818450 0.269160
vt 0.825370 0.269160
vt 0.818450 0.221880
vt 0.825380 0.221880
vt 0.818450 0.174610
vt 0.825380 0.174610
vt 0.818460 0.127850
vt 0.825380 0.127850
vt 0.818460 0.000010
vt 0.825390 0.000010
vt 0.138550 0.853960
vt 0.131620 0.853960
vt 0.131630 0.702130
vt 0.138560 0.702130
vt 0.131640 0.627410
vt 0.138570 0.627410
vt 0.131640 0.558100
vt 0.138570 0.558100
vt 0.285780 0.828110
vt 0.161080 0.828090
vt 0.161090 0.768630
vt 0.285790 0.768650
vt 0.179430 0.025840
vt 0.253710 0.034310
vt 0.236760 0.105370
vt 0.181970 0.105180
vt 0.268560 0.126190
vt 0.316530 0.064620
vt 0.340800 0.119430
vt 0.294760 0.153070
vt 0.342000 0.182870
vt 0.308980 0.197900
vt 0.344120 0.247790
vt 0.315540 0.248230
vt 0.343700 0.313160
vt 0.310850 0.298670
vt 0.342430 0.377030
vt 0.296080 0.343680
vt 0.269570 0.371020
vt 0.317840 0.432320
vt 0.254710 0.463160
vt 0.237250 0.392110
vt 0.180250 0.472770
vt 0.182120 0.393600
vt 0.433380 0.009930
vt 0.507440 0.000000
vt 0.507440 0.080240
vt 0.452160 0.080340
vt 0.346850 0.094360
vt 0.370930 0.040000
vt 0.419280 0.100090
vt 0.393040 0.126510
vt 0.346850 0.156700
vt 0.379830 0.170500
vt 0.346850 0.219030
vt 0.375330 0.219030
vt 0.346850 0.281370
vt 0.379830 0.267570
vt 0.346850 0.343700
vt 0.393040 0.311560
vt 0.433380 0.428140
vt 0.370930 0.398070
vt 0.419280 0.337980
vt 0.452160 0.357730
vt 0.507440 0.357830
vt 0.507440 0.438070
vt 0.997230 0.631870
vt 0.997230 0.664350
vt 0.886390 0.664350
vt 0.886390 0.631870
vt 0.997230 0.282170
vt 0.997230 0.314650
vt 0.886390 0.314650
vt 0.886390 0.282170
vt 0.997230 0.338740
vt 0.886390 0.338740
vt 0.886390 0.379170
vt 0.886390 0.362010
vt 0.997230 0.362010
vt 0.997230 0.379170
vt 0.997230 0.410900
vt 0.886390 0.410900
vt 0.997230 0.473260
vt 0.886390 0.473260
vt 0.997230 0.535620
vt 0.886390 0.535620
vt 0.997230 0.567350
vt 0.886390 0.567350
vt 0.886390 0.607770
vt 0.886390 0.584510
vt 0.997230 0.584510
vt 0.997230 0.607770
vt 0.051410 0.328170
vt 0.159810 0.346700
vt 0.183580 0.354860
vt 0.211820 0.350150
vt 0.245900 0.339580
vt 0.272040 0.321750
vt 0.294090 0.293330
vt 0.303290 0.248400
vt 0.291570 0.203450
vt 0.271180 0.175310
vt 0.245230 0.157890
vt 0.212940 0.147300
vt 0.184390 0.144220
vt 0.160660 0.152950
vt 0.052010 0.171060
vt 0.903670 0.696820
vt 0.923530 0.672900
vt 0.947660 0.694010
vt 0.927210 0.719490
vt 0.916250 0.734530
vt 0.885900 0.723400
vt 0.868690 0.778440
vt 0.875230 0.748640
vt 0.904950 0.757730
vt 0.896830 0.783230
vt 0.866080 0.818640
vt 0.892830 0.818530
vt 0.868630 0.858800
vt 0.896740 0.853880
vt 0.875240 0.888610
vt 0.904860 0.879380
vt 0.916190 0.902580
vt 0.886060 0.913790
vt 0.923960 0.964130
vt 0.903980 0.940280
vt 0.927230 0.917660
vt 0.947810 0.943120
vt 0.475710 0.313960
vt 0.507440 0.313590
vt 0.441600 0.307200
vt 0.396830 0.262360
vt 0.416310 0.290190
vt 0.387690 0.219030
vt 0.396830 0.175710
vt 0.416300 0.147880
vt 0.441600 0.130870
vt 0.507440 0.124680
vt 0.475700 0.124130
vt 0.292710 0.768650
vt 0.131650 0.498630
vt 0.138570 0.498630
vt 0.892830 0.688880
vt 0.913030 0.664320
vt 0.958100 0.702240
vt 0.937970 0.727440
vt 0.874090 0.717210
vt 0.927890 0.741490
vt 0.855430 0.776630
vt 0.862520 0.744630
vt 0.917350 0.762670
vt 0.909950 0.785970
vt 0.852670 0.818810
vt 0.906250 0.818710
vt 0.855410 0.861020
vt 0.909900 0.851490
vt 0.862690 0.893110
vt 0.917340 0.874740
vt 0.874550 0.920410
vt 0.927850 0.895970
vt 0.913650 0.972670
vt 0.893460 0.948360
vt 0.937890 0.909880
vt 0.958100 0.934930
vt 0.686810 0.410470
vt 0.686800 0.538300
vt 0.673390 0.538300
vt 0.673400 0.410470
vt 0.000000 0.005510
vt 0.151760 0.000000
vt 0.152240 0.013480
vt 0.000490 0.018990
vt 0.152340 0.499050
vt 0.000040 0.493990
vt 0.000490 0.480500
vt 0.152790 0.485570
vt 0.686840 0.000000
vt 0.686830 0.127840
vt 0.673410 0.127840
vt 0.673420 0.000000
vt 0.686830 0.174600
vt 0.673410 0.174600
vt 0.686820 0.221880
vt 0.673410 0.221880
vt 0.686820 0.269150
vt 0.673410 0.269150
vt 0.686820 0.316430
vt 0.673400 0.316430
vt 0.686810 0.363700
vt 0.673400 0.363700
vt 0.166750 0.472450
vt 0.169110 0.392360
vt 0.173940 0.346930
vt 0.174630 0.314770
vt 0.182030 0.250290
vt 0.183700 0.306540
vt 0.168600 0.249990
vt 0.176190 0.185170
vt 0.174940 0.152680
vt 0.169160 0.106700
vt 0.183620 0.194860
vt 0.166070 0.026390
vt 0.659970 0.538300
vt 0.659980 0.410460
vt 0.659990 0.363700
vt 0.659990 0.316430
vt 0.659990 0.269150
vt 0.659990 0.221870
vt 0.660000 0.174600
vt 0.660000 0.127840
vt 0.660010 0.000000
vt 0.828600 0.141100
vt 0.828590 0.078760
vt 0.835520 0.078760
vt 0.835530 0.141100
vt 0.828580 0.016430
vt 0.835510 0.016430
vt 0.828610 0.203430
vt 0.835540 0.203430
vt 0.828620 0.265770
vt 0.835550 0.265770
vt 0.993040 0.078740
vt 0.993030 0.016410
vt 0.999960 0.016410
vt 0.999970 0.078740
vt 0.993050 0.141070
vt 0.999980 0.141070
vt 0.993060 0.203410
vt 0.999990 0.203410
vt 0.993070 0.265740
vt 1.000000 0.265740
vt 0.973500 0.078740
vt 0.855060 0.078760
vt 0.855050 0.023570
vt 0.973490 0.023560
vt 0.705810 0.662430
vt 0.650340 0.662430
vt 0.650340 0.630250
vt 0.705810 0.630250
vt 0.705810 0.694610
vt 0.650340 0.694610
vt 0.973530 0.258600
vt 0.855080 0.258610
vt 0.855080 0.203430
vt 0.973520 0.203410
vt 0.838640 0.023580
vt 0.838650 0.078760
vt 0.851920 0.000020
vt 0.976620 0.000000
vt 0.973490 0.007150
vt 0.855050 0.007160
vt 0.989910 0.078740
vt 0.989900 0.023560
vt 0.838660 0.141100
vt 0.989920 0.141070
vt 0.838670 0.203430
vt 0.989930 0.203410
vt 0.976660 0.282160
vt 0.851960 0.282170
vt 0.855090 0.275030
vt 0.973530 0.275010
vt 0.838670 0.258620
vt 0.989940 0.258590
vt 0.855070 0.141090
vt 0.973510 0.141080
vt 0.869800 0.089480
vt 0.869810 0.141090
vt 0.958760 0.089470
vt 0.958770 0.141080
vt 0.869820 0.192700
vt 0.958770 0.192690
vt 0.308310 0.770820
vt 0.308310 0.719200
vt 0.568760 0.719200
vt 0.568760 0.770820
vt 0.308310 0.630250
vt 0.568760 0.630250
vt 0.308310 0.578640
vt 0.568760 0.578640
vt 0.308310 0.527020
vt 0.308310 0.438070
vt 0.568760 0.438070
vt 0.568760 0.527030
vt 0.308310 0.822430
vt 0.568760 0.822430
vt 0.475710 0.281390
vt 0.507440 0.281390
vt 0.458640 0.279690
vt 0.438340 0.268330
vt 0.422450 0.250210
vt 0.413350 0.219030
vt 0.422450 0.187850
vt 0.438340 0.169740
vt 0.458640 0.158370
vt 0.475710 0.156670
vt 0.507440 0.156670
vt 0.614110 0.139940
vt 0.580680 0.173370
vt 0.568440 0.219030
vt 0.507440 0.219030
vt 0.580680 0.264700
vt 0.614110 0.298130
vt 0.659280 0.310230
vt 0.659280 0.438070
vt 0.659280 0.000000
vt 0.659280 0.127840
vt 0.236680 0.278790
vt 0.236680 0.218130
vt 0.256980 0.218130
vt 0.256980 0.267430
vt 0.438340 0.219030
vt 0.475710 0.219030
vt 0.458640 0.219030
vt 0.187870 0.218130
vt 0.219600 0.218130
vt 0.219600 0.280490
vt 0.187870 0.280490
vt 0.219600 0.155770
vt 0.187870 0.155770
vt 0.256980 0.168830
vt 0.236680 0.157470
vt 0.272860 0.186950
vt 0.281960 0.218130
vt 0.272860 0.249310
vt 0.154160 0.768630
vt 0.154170 0.699320
vt 0.161100 0.699320
vt 0.161110 0.624600
vt 0.154180 0.624600
vt 0.161130 0.472760
vt 0.154200 0.472760
vt 0.693740 0.410470
vt 0.693730 0.538310
vt 0.693740 0.363700
vt 0.693750 0.316430
vt 0.693750 0.269150
vt 0.693750 0.221880
vt 0.693750 0.174600
vt 0.693760 0.127840
vt 0.693760 0.000000
vt 0.006930 0.702120
vt 0.006920 0.853950
vt 0.000000 0.853950
vt 0.000010 0.702120
vt 0.006940 0.627400
vt 0.000010 0.627400
vt 0.006940 0.558090
vt 0.000020 0.558090
vt 0.292710 0.828110
vt 0.154150 0.828090
vt 0.000020 0.498620
vt 0.006950 0.498620
vt 0.657720 0.578640
vt 0.657720 0.630250
vt 0.640970 0.610820
vt 0.640970 0.578640
vt 0.585510 0.610820
vt 0.585510 0.578640
vt 0.657720 0.527030
vt 0.640970 0.546460
vt 0.585510 0.546460
vt 0.852490 0.782260
vt 0.852490 0.814440
vt 0.705810 0.814440
vt 0.705810 0.782260
vt 0.852490 0.574780
vt 0.852490 0.630250
vt 0.705810 0.574780
vt 0.852490 0.662430
vt 0.852490 0.694610
vt 0.852490 0.750070
vt 0.705810 0.750070
vn 0.000000 0.000000 1.000000
vn 0.000000 0.000000 1.000000
vn 0.000000 0.000000 1.000000
vn 0.000000 0.000000 1.000000
vn 0.000000 0.000000 1.000000
vn 0.000000 0.000000 1.000000
vn -0.000000 0.000000 1.000000
vn 0.000000 0.000000 1.000000
vn 0.000000 0.000000 1.000000
vn -0.000000 0.000000 1.000000
vn 0.000000 0.000000 1.000000
vn 0.000000 0.000000 1.000000
vn 0.000000 0.000000 1.000000
vn 0.000000 0.000000 1.000000
vn 0.959648 0.281205 0.000000
vn 0.959648 0.281205 0.000000
vn 0.999036 0.043909 0.000000
vn 0.999036 0.043909 0.000000
vn 1.000000 0.000000 0.000000
vn 1.000000 0.000000 0.000000
vn 0.000000 -1.000000 0.000000
vn 0.000000 -1.000000 0.000000
vn 0.000000 -1.000000 0.000000
vn 0.000000 -1.000000 0.000000
vn -0.965926 -0.258818 0.000000
vn -0.965926 -0.258817 0.000000
vn -0.965926 -0.258818 0.000000
vn -0.965926 -0.258818 0.000000
vn -0.707106 -0.707107 0.000000
vn -0.707106 -0.707108 0.000000
vn -0.707106 -0.707108 0.000000
vn -0.707106 -0.707107 0.000000
vn -0.258820 -0.965926 0.000000
vn -0.258820 -0.965926 0.000000
vn -0.258820 -0.965926 0.000000
vn -0.258820 -0.965926 0.000000
vn 0.258820 -0.965926 0.000000
vn 0.258820 -0.965926 0.000000
vn 0.258820 -0.965926 0.000000
vn 0.258820 -0.965926 0.000000
vn 0.707107 -0.707107 0.000000
vn 0.707107 -0.707107 0.000000
vn 0.707107 -0.707107 0.000000
vn 0.707107 -0.707107 0.000000
vn 0.965926 -0.258819 0.000000
vn 0.965926 -0.258819 0.000000
vn 0.965926 -0.258819 0.000000
vn 0.965926 -0.258819 0.000000
vn 0.000000 -1.000000 0.000000
vn 0.000000 -1.000000 0.000000
vn 0.000000 -1.000000 0.000000
vn 0.000000 -1.000000 0.000000
vn -1.000000 0.000000 0.000000
vn -1.000000 0.000000 0.000000
vn -0.999036 0.043909 0.000000
vn -0.999036 0.043909 0.000000
vn -0.959648 0.281205 0.000000
vn -0.959648 0.281205 0.000001
vn -0.900978 0.433865 0.000000
vn -0.900978 0.433866 0.000001
vn 0.357727 0.933826 -0.000000
vn 0.357727 0.933826 -0.000000
vn 0.405098 0.914273 -0.000000
vn 0.405098 0.914273 0.000000
vn -0.000000 -0.000000 1.000000
vn -0.000000 0.000000 1.000000
vn -0.000000 0.000000 1.000000
vn -0.000000 -0.000000 1.000000
vn -0.000000 0.000000 1.000000
vn -0.000000 0.000000 1.000000
vn -0.000000 -0.000000 1.000000
vn -0.000000 -0.000000 1.000000
vn 0.000000 -0.000000 1.000000
vn 0.000000 -0.000000 1.000000
vn 0.000000 -0.000000 1.000000
vn 0.000000 -0.000000 1.000000
vn 0.000000 0.000000 1.000000
vn -0.000000 0.000000 1.000000
vn 0.000000 0.000000 1.000000
vn 0.000000 0.000000 1.000000
vn 0.000000 0.000000 1.000000
vn 0.000000 0.000000 1.000000
vn 0.000000 0.000000 1.000000
vn 0.000000 0.000000 1.000000
vn 0.000000 0.000000 1.000000
vn 0.000000 0.000000 1.000000
vn -0.000000 -0.000000 -1.000000
vn 0.000000 0.000000 -1.000000
vn -0.000000 0.000000 -1.000000
vn -0.000000 -0.000000 -1.000000
vn -0.000000 0.000000 -1.000000
vn -0.000000 0.000000 -1.000000
vn -0.000000 0.000000 -1.000000
vn -0.000000 0.000000 -1.000000
vn 0.000000 -0.000000 -1.000000
vn 0.000000 -0.000000 -1.000000
vn 0.000000 -0.000000 -1.000000
vn 0.000000 -0.000001 -1.000000
vn -0.000000 -0.000001 -1.000000
vn -0.000000 -0.000000 -1.000000
vn 0.000000 -0.000000 -1.000000
vn 0.000000 -0.000000 -1.000000
vn 0.000000 -0.000000 -1.000000
vn 0.000000 -0.000000 -1.000000
vn 0.000000 -0.000000 -1.000000
vn 0.000000 -0.000000 -1.000000
vn 0.000000 0.000000 -1.000000
vn 0.000000 0.000000 -1.000000
vn -0.452072 -0.891982 0.000000
vn -0.280112 -0.959967 0.000000
vn -0.280112 -0.959967 0.000000
vn -0.452072 -0.891982 0.000000
vn 0.280112 -0.959967 0.000000
vn 0.452072 -0.891981 0.000000
vn 0.452072 -0.891981 0.000000
vn 0.280112 -0.959967 0.000000
vn 0.775268 -0.631632 0.000000
vn 0.775268 -0.631632 0.000000
vn 0.999395 -0.034793 0.000000
vn 0.944001 -0.329942 0.000000
vn 0.944001 -0.329941 0.000000
vn 0.999395 -0.034792 0.000000
vn 1.000000 0.000000 0.000000
vn 1.000000 0.000000 0.000000
vn 0.000000 1.000000 0.000000
vn 0.000000 1.000000 0.000000
vn 0.000000 1.000000 0.000000
vn 0.000000 1.000000 0.000000
vn 0.000000 1.000000 0.000000
vn 0.000000 1.000000 0.000000
vn -1.000000 0.000000 0.000000
vn -0.999395 -0.034792 0.000000
vn -0.999395 -0.034792 0.000000
vn -1.000000 0.000000 0.000000
vn -0.775268 -0.631632 0.000000
vn -0.944001 -0.329941 0.000000
vn -0.944001 -0.329941 0.000000
vn -0.775268 -0.631632 0.000000
vn 0.000000 0.000000 1.000000
vn 0.000000 0.000000 1.000000
vn -0.000000 0.000000 1.000000
vn -0.000000 0.000000 1.000000
vn 0.000000 0.000000 1.000000
vn 0.000000 0.000000 1.000000
vn -0.000000 0.000000 1.000000
vn 0.000000 -0.000000 1.000000
vn 0.000000 -0.000000 1.000000
vn 0.000000 0.000000 1.000000
vn -0.000000 0.000001 1.000000
vn 0.000000 0.000000 1.000000
vn 0.000000 -0.000000 1.000000
vn -0.000000 0.000000 1.000000
vn -0.000000 0.000000 1.000000
vn -0.000000 0.000000 1.000000
vn -0.000000 0.000000 1.000000
vn -0.000000 0.000000 1.000000
vn -0.000000 0.000000 1.000000
vn 0.000000 0.000000 1.000000
vn 0.000000 0.000000 1.000000
vn -0.000000 0.000000 1.000000
vn -0.000000 0.000000 1.000000
vn -0.000000 0.000000 1.000000
vn -0.000000 0.000000 1.000000
vn -0.000000 0.000000 1.000000
vn -0.000000 0.000000 1.000000
vn -0.000000 -0.000000 1.000000
vn -0.000000 -0.000000 1.000000
vn 0.000000 -0.000000 1.000000
vn 0.000000 -0.000000 1.000000
vn 0.000000 0.000000 1.000000
vn 0.000000 0.000000 1.000000
vn 0.000000 0.000000 1.000000
vn 0.000000 0.000000 1.000000
vn 0.000000 0.000000 1.000000
vn 0.000000 0.000000 1.000000
vn 0.000000 0.000000 -1.000000
vn 0.000000 0.000000 -1.000000
vn -0.000000 -0.000000 -1.000000
vn 0.000000 0.000000 -1.000000
vn 0.000000 0.000001 -1.000000
vn 0.000000 -0.000000 -1.000000
vn 0.000000 0.000000 -1.000000
vn 0.000000 0.000000 -1.000000
vn -0.000000 0.000001 -1.000000
vn 0.000000 -0.000000 -1.000000
vn -0.000000 -0.000000 -1.000000
vn 0.900978 0.433865 0.000000
vn 0.900978 0.433865 0.000000
vn -0.405098 0.914273 0.000000
vn -0.357727 0.933826 -0.000000
vn -0.202154 0.979354 -0.000002
vn -0.405098 0.914274 -0.000001
vn -0.995323 0.096607 0.000000
vn -0.999931 -0.011721 0.000000
vn -0.999931 -0.011721 0.000000
vn -0.995323 0.096607 0.000000
vn 0.999395 -0.034792 0.000000
vn 1.000000 0.000000 0.000000
vn -0.928430 0.371508 0.000000
vn -0.928430 0.371508 0.000000
vn 0.944002 -0.329941 0.000000
vn -0.373155 0.927769 0.000000
vn -0.706571 0.707642 0.000000
vn -0.706571 0.707642 0.000000
vn -0.373155 0.927769 0.000000
vn 0.452072 -0.891981 0.000000
vn 0.775268 -0.631632 0.000000
vn -0.000009 1.000000 -0.000001
vn -0.000009 1.000000 -0.000001
vn 0.280112 -0.959967 0.000000
vn 0.373137 0.927776 -0.000001
vn 0.373137 0.927776 -0.000001
vn -0.452072 -0.891981 0.000000
vn -0.280112 -0.959967 0.000000
vn 0.706569 0.707644 -0.000001
vn 0.706569 0.707644 -0.000001
vn -0.775268 -0.631632 0.000000
vn 0.928538 0.371237 0.000000
vn 0.928538 0.371237 0.000000
vn -0.944002 -0.329941 0.000000
vn 0.999942 -0.010791 0.000000
vn 0.995323 0.096607 0.000000
vn 0.995323 0.096607 0.000000
vn 0.999942 -0.010791 0.000000
vn -1.000000 0.000000 0.000000
vn -0.999395 -0.034792 0.000000
vn 0.000000 -1.000000 0.000000
vn 0.000000 -1.000000 0.000000
vn 0.000000 -1.000000 0.000000
vn 0.000000 -1.000000 0.000000
vn 1.000000 0.000000 0.000000
vn 0.999818 0.019093 0.000000
vn 1.000000 0.000000 0.000000
vn 1.000000 0.000000 0.000000
vn -0.999818 0.019093 0.000000
vn -1.000000 0.000000 0.000000
vn -1.000000 0.000000 0.000000
vn -1.000000 0.000000 0.000000
vn 0.000000 -1.000000 0.000000
vn 0.000000 -1.000000 0.000000
vn 0.000000 -1.000000 0.000000
vn 0.000000 -1.000000 0.000000
vn 0.965926 -0.258819 0.000000
vn 0.965926 -0.258819 0.000000
vn 0.965926 -0.258819 0.000000
vn 0.965926 -0.258819 0.000000
vn 0.707107 -0.707107 0.000000
vn 0.707107 -0.707107 0.000000
vn 0.707107 -0.707107 0.000000
vn 0.707107 -0.707107 0.000000
vn 0.258820 -0.965926 0.000000
vn 0.258820 -0.965926 0.000000
vn 0.258820 -0.965925 0.000000
vn 0.258820 -0.965925 0.000000
vn -0.258820 -0.965926 0.000000
vn -0.258820 -0.965926 0.000000
vn -0.258820 -0.965925 0.000000
vn -0.258820 -0.965925 0.000000
vn -0.707105 -0.707108 0.000000
vn -0.707105 -0.707108 0.000000
vn -0.707105 -0.707108 0.000000
vn -0.707105 -0.707108 0.000000
vn -0.965927 -0.258817 0.000000
vn -0.965927 -0.258817 0.000000
vn -0.965927 -0.258817 0.000000
vn -0.965927 -0.258817 0.000000
vn 0.000000 1.000000 0.000000
vn 0.000000 1.000000 0.000000
vn 0.000000 1.000000 0.000000
vn 0.000000 1.000000 0.000000
vn 0.000000 1.000000 0.000000
vn 0.000000 1.000000 0.000000
vn 0.000000 1.000000 0.000000
vn 0.000000 1.000000 0.000000
vn 0.000000 1.000000 0.000000
vn 0.000000 1.000000 0.000000
vn 0.000000 1.000000 0.000000
vn 0.000000 1.000000 0.000000
vn 0.000000 1.000000 0.000000
vn 0.000000 1.000000 0.000000
vn -0.000001 1.000000 0.000000
vn -0.000001 1.000000 0.000000
vn 0.000000 1.000000 0.000000
vn -0.000001 1.000000 0.000000
vn -0.000001 1.000000 0.000000
vn -0.000001 1.000000 0.000000
vn -0.000001 1.000000 0.000000
vn 1.000000 0.000000 0.000000
vn 1.000000 0.000000 0.000000
vn 0.000000 -1.000000 0.000000
vn 0.000000 -1.000000 0.000000
vn -0.965926 -0.258817 0.000000
vn -0.965926 -0.258817 0.000000
vn -0.707105 -0.707108 0.000000
vn -0.707105 -0.707108 0.000000
vn -0.258820 -0.965926 0.000000
vn -0.258820 -0.965926 0.000000
vn 0.258820 -0.965926 0.000000
vn 0.258820 -0.965926 0.000000
vn 0.707107 -0.707107 0.000000
vn 0.707107 -0.707107 0.000000
vn 0.965926 -0.258819 0.000000
vn 0.965926 -0.258819 0.000000
vn 0.000000 -1.000000 0.000000
vn 0.000000 -1.000000 0.000000
vn -1.000000 0.000000 0.000000
vn -1.000000 0.000000 0.000000
vn 0.000000 1.000000 0.000000
vn 0.000000 1.000000 0.000000
vn 0.000000 1.000000 0.000000
vn 0.000000 1.000000 -0.000000
vn 0.000000 1.000000 -0.000000
vn 0.000000 1.000000 0.000000
vn 0.202156 0.979353 -0.000001
vn 0.000000 1.000000 0.000000
vn 0.000000 1.000000 0.000000
vn -0.202155 0.979354 0.000000
vn -0.357727 0.933826 0.000000
vn 0.000000 1.000000 -0.000000
vn 0.202155 0.979354 0.000000
vn 0.000000 1.000000 0.000000
vn 0.000000 1.000000 0.000000
vn 0.000000 1.000000 0.000000
vn -0.000000 1.000000 -0.000001
vn -0.000000 1.000000 -0.000001
vn 0.000000 1.000000 0.000000
vn 0.000000 1.000000 -0.000000
vn 0.000000 1.000000 0.000000
vn 0.000000 1.000000 0.000000
vn 0.000000 1.000000 0.000000
vn 0.000000 1.000000 0.000000
vn 0.000000 1.000000 0.000000
vn 0.000000 1.000000 0.000000
vn 0.000000 1.000000 0.000000
vn 0.000000 1.000000 0.000000
vn 0.000000 1.000000 0.000000
vn 0.000000 1.000000 0.000000
vn 0.000000 1.000000 -0.000000
vn 0.000000 1.000000 0.000000
vn 0.000000 1.000000 0.000000
vn 0.000000 1.000000 0.000000
vn 0.000000 1.000000 -0.000000
vn 0.000000 1.000000 -0.000000
vn 0.000000 1.000000 0.000000
vn 0.000000 1.000000 0.000000
vn 0.000000 1.000000 0.000000
vn 0.000000 1.000000 0.000000
vn 0.000000 1.000000 0.000000
vn 0.000000 1.000000 0.000000
vn 0.000000 0.000000 1.000000
vn 0.000000 0.000000 1.000000
vn 0.000000 0.000000 1.000000
vn 0.000000 0.000000 1.000000
vn 1.000000 0.000000 0.000000
vn 1.000000 0.000000 0.000000
vn 1.000000 0.000000 0.000000
vn 1.000000 0.000000 0.000000
vn 0.000000 0.000000 -1.000000
vn 0.000000 0.000000 -1.000000
vn 0.000000 0.000000 -1.000000
vn 0.000000 0.000000 -1.000000
vn 0.000000 0.000000 1.000000
vn 0.000000 0.000000 1.000000
vn 0.000000 0.000000 -1.000000
vn 0.000000 0.000000 -1.000000
vn 0.000000 0.000000 1.000000
vn 0.000000 0.000000 1.000000
vn 0.000000 0.000000 -1.000000
vn 0.000000 0.000000 -1.000000
vn -1.000000 0.000000 0.000000
vn -1.000000 0.000000 0.000000
vn -1.000000 0.000000 0.000000
vn -1.000000 0.000000 0.000000
vn 0.000000 0.000000 1.000000
vn 0.000000 0.000000 1.000000
vn 0.000000 0.000000 -1.000000
vn 0.000000 0.000000 -1.000000
vn 0.000000 1.000000 -0.000000
vn 0.000000 1.000000 -0.000000
vn 0.000000 1.000000 -0.000000
vn 0.000000 1.000000 0.000000
vn 0.000000 1.000000 0.000000
vn 0.000000 1.000000 0.000000
vn 0.000000 1.000000 -0.000000
vn 0.000000 1.000000 0.000000
vn 0.000000 0.000000 1.000000
vn 0.000000 0.000000 1.000000
vn 0.000000 0.000000 1.000000
vn 0.000000 0.000000 1.000000
vn 1.000000 -0.000000 0.000000
vn 1.000000 -0.000000 0.000000
vn 1.000000 -0.000000 0.000000
vn 1.000000 -0.000000 0.000000
vn -0.000000 -0.000000 -1.000000
vn -0.000000 -0.000000 -1.000000
vn -0.000000 -0.000000 -1.000000
vn -0.000000 -0.000000 -1.000000
vn -1.000000 0.000000 0.000000
vn -1.000000 0.000000 0.000000
vn -1.000000 0.000000 0.000000
vn -1.000000 0.000000 0.000000
vn 0.000000 0.000000 1.000000
vn 0.000000 0.000000 1.000000
vn 0.000000 0.000000 -1.000000
vn 0.000000 0.000000 -1.000000
vn 0.000000 -0.000000 -1.000000
vn 0.000000 0.000000 -1.000000
vn 0.000000 -0.000001 -1.000000
vn 0.000000 0.000001 -1.000000
vn 0.000001 -0.000001 -1.000000
vn -0.000000 -0.000000 -1.000000
vn -0.000000 0.000000 -1.000000
vn 0.000000 0.000001 -1.000000
vn 0.000000 -0.000000 -1.000000
vn 0.000000 0.000000 -1.000000
vn 0.000000 0.000000 -1.000000
vn -0.000000 0.000000 -1.000000
vn 0.000001 -0.000000 -1.000000
vn -0.000000 0.000000 -1.000000
vn -0.000000 0.000000 -1.000000
vn 0.000000 0.000000 -1.000000
vn 0.000000 0.000000 -1.000000
vn 0.000000 0.000000 -1.000000
vn 0.000000 0.000000 -1.000000
vn 0.000000 0.000000 -1.000000
vn -0.000000 0.000000 -1.000000
vn -0.000000 0.000000 1.000000
vn 0.000000 0.000000 1.000000
vn 0.000000 -0.000000 1.000000
vn -0.000000 -0.000001 1.000000
vn -0.000000 0.000001 -1.000000
vn -0.000000 -0.000000 -1.000000
vn -0.000000 -0.000000 -1.000000
vn 0.000000 -0.000001 1.000000
vn 0.000000 -0.000000 1.000000
vn 0.000000 -0.000000 1.000000
vn 0.000000 -0.000001 1.000000
vn 0.000000 -0.000000 1.000000
vn 0.000000 -0.000001 1.000000
vn 0.000001 0.000000 1.000000
vn 0.000000 0.000001 1.000000
vn 0.000001 0.000000 1.000000
vn 0.000000 0.000000 1.000000
vn -0.000000 0.000000 1.000000
vn 0.900978 0.433865 0.000000
vn 0.959648 0.281205 0.000000
vn 0.959648 0.281205 0.000000
vn 0.900978 0.433865 0.000000
vn 0.999036 0.043909 0.000000
vn 1.000000 0.000000 0.000000
vn 0.000000 -1.000000 0.000000
vn 0.000000 -1.000000 0.000000
vn -0.965926 -0.258817 0.000000
vn -0.965926 -0.258817 0.000000
vn -0.707106 -0.707108 0.000000
vn -0.707106 -0.707108 0.000000
vn -0.258820 -0.965926 0.000000
vn -0.258820 -0.965926 0.000000
vn 0.258820 -0.965926 0.000000
vn 0.258820 -0.965926 0.000000
vn 0.707106 -0.707107 0.000000
vn 0.707106 -0.707107 0.000000
vn 0.965926 -0.258819 0.000000
vn 0.965926 -0.258819 0.000000
vn 0.000000 -1.000000 0.000000
vn 0.000000 -1.000000 0.000000
vn -0.999036 0.043909 0.000000
vn -1.000000 0.000000 0.000000
vn -0.959648 0.281205 0.000000
vn -0.959648 0.281205 0.000000
vn -0.900978 0.433865 0.000000
vn -0.900978 0.433865 0.000000
vn 0.405098 0.914273 0.000000
vn 0.405098 0.914273 -0.000001
vn -0.405098 0.914273 0.000000
vn -0.405098 0.914273 0.000000
vn 0.000000 1.000000 0.000001
vn 0.000000 1.000000 0.000000
vn 0.000000 1.000000 0.000000
vn 0.000000 1.000000 0.000001
vn 0.000000 1.000000 -0.000000
vn 0.000000 1.000000 -0.000000
vn 0.000000 1.000000 -0.000001
vn 0.000000 1.000000 -0.000001
vn 0.000000 1.000000 -0.000000
vn 0.000000 1.000000 0.000000
vn 0.000000 1.000000 0.000000
vn 0.000000 1.000000 -0.000000
vn -0.000000 0.000000 -1.000000
vn -0.000001 0.000000 -1.000000
vn -0.000001 0.000000 -1.000000
vn -0.000000 0.000000 -1.000000
vn -1.000000 0.000000 0.000000
vn -1.000000 0.000000 0.000000
vn -1.000000 0.000000 0.000000
vn -1.000000 0.000000 0.000000
vn 0.000000 0.000000 1.000000
vn 0.000000 0.000000 1.000000
vn 0.000000 0.000000 1.000000
vn 0.000000 0.000000 1.000000
vn 1.000000 0.000000 0.000000
vn 1.000000 0.000000 0.000000
vn 1.000000 0.000000 0.000000
vn 1.000000 0.000000 0.000000
vn 0.000000 0.000000 -1.000000
vn 0.000000 0.000000 -1.000000
vn 0.000000 0.000000 1.000000
vn 0.000000 0.000000 1.000000
vn 0.000000 1.000000 0.000000
s 1
g low:polySurface5
usemtl low:defaultMat
f 114/1/1 113/2/2 115/3/3 116/4/4
f 116/4/4 115/3/3 117/5/5 118/6/6
f 120/7/7 119/8/8 121/9/9 122/10/10
f 124/11/11 123/12/12 125/13/13 126/14/14
s 4
f 32/15/15 223/16/16 224/17/17 52/18/18
f 52/18/18 224/17/17 225/19/19 31/20/20
s 5
f 31/21/21 225/22/22 226/23/23 40/24/24
s 6
f 40/24/25 226/23/26 227/25/27 43/26/28
s 7
f 43/26/29 227/25/30 228/27/31 44/28/32
s 8
f 44/28/33 228/27/34 229/29/35 45/30/36
s 9
f 45/30/37 229/29/38 230/31/39 47/32/40
s 10
f 47/32/41 230/31/42 231/33/43 48/34/44
s 11
f 48/34/45 231/33/46 232/35/47 49/36/48
s 12
f 49/36/49 232/35/50 233/37/51 50/38/52
s 13
f 50/39/53 233/40/54 234/41/55 53/42/56
f 53/42/56 234/41/55 235/43/57 46/44/58
f 46/44/58 235/43/57 236/45/59 106/46/60
s 14
f 57/47/61 27/48/62 251/49/63 222/50/64
s 15
f 22/51/65 2/52/66 68/53/67 69/54/68
f 104/55/69 97/56/70 26/57/71 67/58/72
f 26/57/71 30/59/73 66/60/74 67/58/72
f 30/59/73 24/61/75 65/62/76 66/60/74
f 24/61/75 29/63/77 64/64/78 65/62/76
f 29/63/77 25/65/79 63/66/80 64/64/78
f 112/67/81 105/68/82 16/69/83 62/70/84
f 16/69/83 23/71/85 61/72/86 62/70/84
s 16
f 32/73/87 52/74/88 79/75/89 80/76/90
f 56/77/91 98/78/92 99/79/93 81/80/94
f 60/81/95 56/77/91 81/80/94 82/82/96
f 54/83/97 60/81/95 82/82/96 83/84/98
f 59/85/99 54/83/97 83/84/98 84/86/100
f 55/87/101 59/85/99 84/86/100 85/88/102
f 46/89/103 106/90/104 107/91/105 86/92/106
f 86/92/106 87/93/107 53/94/108 46/89/103
s 17
f 4/95/109 6/96/110 215/97/111 204/98/112
s 18
f 6/99/113 8/100/114 214/101/115 215/102/116
f 8/100/114 9/103/117 213/104/118 214/101/115
f 211/105/119 212/106/120 110/107/121 12/108/122
f 12/108/122 11/109/123 210/110/124 211/105/119
s 19
f 11/109/125 21/111/126 209/112/127 210/110/128
f 21/111/126 7/113/129 208/114/130 209/112/127
s 17
f 7/113/131 5/115/132 207/116/133 208/114/134
f 205/117/135 206/118/136 102/119/137 3/120/138
f 3/120/138 4/95/109 204/98/112 205/117/135
s 1
f 126/14/14 125/13/13 127/121/139 128/122/140
s 15
f 62/70/84 61/72/86 70/123/141 71/124/142
f 111/125/143 112/67/81 62/70/84 71/124/142
f 64/64/78 63/66/80 72/126/144 73/127/145
f 65/62/76 64/64/78 73/127/145 74/128/146
f 66/60/74 65/62/76 74/128/146 75/129/147
f 67/58/72 66/60/74 75/129/147 76/130/148
f 103/131/149 104/55/69 67/58/72 76/130/148
f 69/54/68 68/53/67 77/132/150 78/133/151
s 1
f 120/7/7 122/10/10 129/134/152 130/135/153
f 128/122/140 127/121/139 113/2/2 114/1/1
s 21
f 132/136/154 131/137/155 133/138/156 134/139/157
f 135/140/158 136/141/159 132/136/154 134/139/157
f 138/142/160 137/143/161 139/144/162 140/145/163
f 141/146/164 138/142/160 140/145/163 142/147/165
f 143/148/166 141/146/164 142/147/165 144/149/167
f 145/150/168 143/148/166 144/149/167 146/151/169
f 147/152/170 148/153/171 145/150/168 146/151/169
f 150/154/172 149/155/173 151/156/174 152/157/175
s 1
f 130/135/153 129/134/152 118/6/6 117/5/5
s 16
f 89/158/176 88/159/177 87/93/107 86/92/106
f 86/92/106 107/91/105 108/160/178 89/158/176
f 85/88/102 84/86/100 91/161/179 90/162/180
f 84/86/100 83/84/98 92/163/181 91/161/179
f 83/84/98 82/82/96 93/164/182 92/163/181
f 82/82/96 81/80/94 94/165/183 93/164/182
f 81/80/94 99/79/93 100/166/184 94/165/183
f 80/76/90 79/75/89 96/167/185 95/168/186
s 4
f 222/50/187 223/16/16 32/15/15 98/169/188
s 16
f 99/79/93 98/78/92 32/73/87 80/76/90
f 100/166/184 99/79/93 80/76/90 95/168/186
s 17
f 5/115/132 102/119/137 206/118/136 207/116/133
s 21
f 149/155/173 148/153/171 147/152/170 151/156/174
s 15
f 68/53/67 104/55/69 103/131/149 77/132/150
f 2/52/66 97/56/70 104/55/69 68/53/67
s 14
f 236/45/189 58/170/190 55/171/191 106/46/192
s 16
f 107/91/105 106/90/104 55/87/101 85/88/102
f 108/160/178 107/91/105 85/88/102 90/162/180
s 18
f 9/103/117 110/107/121 212/106/120 213/104/118
s 21
f 137/143/161 136/141/159 135/140/158 139/144/162
s 15
f 63/66/80 112/67/81 111/125/143 72/126/144
f 25/65/79 105/68/82 112/67/81 63/66/80
s 23
f 71/172/193 70/173/194 131/137/195 132/136/196
s 18
f 11/174/123 12/175/122 134/139/197 133/138/198
s 23
f 111/176/199 71/172/193 132/136/196 136/141/200
s 18
f 12/175/122 110/177/121 135/140/201 134/139/197
s 23
f 73/178/202 72/179/203 137/143/204 138/142/205
s 18
f 9/180/117 8/181/114 140/145/206 139/144/207
s 23
f 74/182/208 73/178/202 138/142/205 141/146/209
s 18
f 8/181/114 6/183/113 142/147/210 140/145/206
s 23
f 75/184/211 74/182/208 141/146/209 143/148/212
s 17
f 6/183/110 4/185/109 144/149/213 142/147/214
s 23
f 76/186/215 75/184/211 143/148/212 145/150/216
s 17
f 4/185/109 3/187/138 146/151/217 144/149/213
s 23
f 103/188/218 76/186/215 145/150/216 148/153/219
s 17
f 3/187/138 102/189/137 147/152/220 146/151/217
s 23
f 78/190/221 77/191/222 149/155/223 150/154/224
s 17
f 5/192/132 7/193/131 152/157/225 151/156/226
s 23
f 77/191/222 103/188/218 148/153/219 149/155/223
s 17
f 102/189/137 5/192/132 151/156/226 147/152/220
s 23
f 72/179/203 111/176/199 136/141/200 137/143/204
s 18
f 110/177/121 9/180/117 139/144/207 135/140/201
s 5
f 10/194/227 1/195/228 155/196/229 156/197/230
s 4
f 1/198/231 22/199/232 154/200/233 155/201/234
s 13
f 23/202/235 20/203/236 163/204/237 164/205/238
s 12
f 20/206/239 19/207/240 162/208/241 163/209/242
s 11
f 19/207/243 18/210/244 161/211/245 162/208/246
s 10
f 18/210/247 17/212/248 160/213/249 161/211/250
s 9
f 17/212/251 15/214/252 159/215/253 160/213/254
s 8
f 15/214/255 14/216/256 158/217/257 159/215/258
s 7
f 14/216/259 13/218/260 157/219/261 158/217/262
s 6
f 13/218/263 10/194/264 156/197/265 157/219/266
s 19
f 164/220/267 165/221/268 61/72/269 23/71/270
f 165/221/268 131/222/271 70/123/272 61/72/269
f 114/1/273 133/223/274 131/222/271 128/122/275
f 21/224/126 11/225/125 133/223/274 264/226/276
f 152/227/277 118/6/278 129/134/279 150/228/280
f 150/228/280 153/229/281 69/54/282 78/133/283
f 21/224/126 264/226/276 152/227/277 7/230/129
f 69/54/282 153/229/281 154/231/284 22/51/285
f 154/231/284 153/229/281 122/10/286 121/9/287
s 4
f 155/201/234 154/200/233 121/9/288 119/8/289
s 5
f 156/197/230 155/196/229 119/232/290 120/233/291
s 6
f 157/219/266 156/197/265 120/233/292 130/234/293
s 7
f 158/217/262 157/219/261 130/234/294 117/235/295
s 8
f 159/215/258 158/217/257 117/235/296 115/236/297
s 9
f 160/213/254 159/215/253 115/236/298 113/237/299
s 10
f 161/211/250 160/213/249 113/237/300 127/238/301
s 11
f 162/208/246 161/211/245 127/238/302 125/239/303
s 12
f 163/209/242 162/208/241 125/239/304 123/240/305
s 13
f 164/205/238 163/204/237 123/12/306 124/11/307
s 19
f 126/14/308 165/221/268 164/220/267 124/11/309
f 128/122/275 131/222/271 165/221/268 126/14/308
f 150/228/280 129/134/279 122/10/286 153/229/281
s 14
f 24/241/310 30/242/311 169/243/312 170/244/313
f 30/242/311 26/245/314 27/246/62 169/243/312
f 29/247/315 24/241/310 170/244/313 171/248/316
f 25/249/317 29/247/315 171/248/316 28/250/318
f 166/251/319 57/252/61 56/253/320 60/254/321
f 167/255/322 166/251/319 60/254/321 54/256/323
f 168/257/324 167/255/322 54/256/323 59/258/325
f 58/259/190 168/257/324 59/258/325 55/260/191
s 39
f 183/261/326 182/262/327 184/263/328 185/264/329
s 40
f 259/265/330 258/266/331 260/267/332 261/268/333
f 263/269/334 262/270/335 258/266/331 259/265/330
s 39
f 191/271/336 190/272/337 188/273/338 189/274/339
s 14
f 169/243/312 27/246/62 174/275/340 172/276/341
f 27/277/62 57/278/61 175/279/342 174/280/340
f 57/252/61 166/251/319 173/281/343 175/282/342
f 170/244/313 169/243/312 172/276/341 176/283/344
f 166/251/319 167/255/322 177/284/345 173/281/343
f 171/248/316 170/244/313 176/283/344 178/285/346
f 167/255/322 168/257/324 179/286/347 177/284/345
f 58/287/190 28/288/318 180/289/348 181/290/349
f 28/250/318 171/248/316 178/285/346 180/291/348
f 168/257/324 58/259/190 181/292/349 179/286/347
s 42
f 172/276/350 174/275/351 184/263/352 182/262/353
s off
f 174/280/354 175/279/355 185/264/356 184/263/357
s 43
f 175/282/358 173/281/359 183/261/360 185/264/361
s 42
f 176/283/362 172/276/350 182/262/353 186/293/363
s 43
f 173/281/359 177/284/364 187/294/365 183/261/360
s 42
f 178/285/366 176/283/362 186/293/363 188/273/367
s 43
f 177/284/364 179/286/368 189/274/369 187/294/365
s off
f 181/290/370 180/289/371 190/272/372 191/271/373
s 42
f 180/291/374 178/285/366 188/273/367 190/272/375
s 43
f 179/286/368 181/292/376 191/271/377 189/274/369
s 39
f 186/293/378 182/262/327 194/295/379 192/296/380
f 182/262/327 183/261/326 195/297/381 194/295/379
f 183/261/326 187/294/382 193/298/383 195/297/381
f 189/274/339 188/273/338 196/299/384 197/300/385
f 188/273/338 186/293/378 192/296/380 196/299/384
f 187/294/382 189/274/339 197/300/385 193/298/383
s 44
f 192/301/386 194/302/387 200/303/388 198/304/389
s off
f 194/302/390 195/305/391 201/306/392 200/303/393
s 45
f 195/305/394 193/307/395 199/308/396 201/306/397
s off
f 197/309/398 196/310/399 202/311/400 203/312/401
s 44
f 196/313/402 192/301/386 198/304/389 202/314/403
s 45
f 193/307/395 197/309/404 203/312/405 199/308/396
s 16
f 42/315/406 41/316/407 88/159/177 89/158/176
f 89/158/176 108/160/178 109/317/408 42/315/406
f 39/318/409 109/317/408 108/160/178 90/162/180
f 38/319/410 39/318/409 90/162/180 91/161/179
f 36/320/411 38/319/410 91/161/179 92/163/181
f 34/321/412 36/320/411 92/163/181 93/164/182
f 33/322/413 34/321/412 93/164/182 94/165/183
f 94/165/183 100/166/184 101/323/414 33/322/413
f 35/324/415 101/323/414 100/166/184 95/168/186
f 37/325/416 35/324/415 95/168/186 96/167/185
f 43/326/417 44/327/418 37/325/416 96/167/185
f 44/327/418 45/328/419 51/329/420 37/325/416
f 41/316/407 51/329/420 45/328/419 47/330/421
f 47/330/421 48/331/422 88/159/177 41/316/407
f 48/331/422 49/332/423 87/93/107 88/159/177
f 49/332/423 50/333/424 53/94/108 87/93/107
f 31/334/425 40/335/426 79/75/89 52/74/88
f 40/335/426 43/326/417 96/167/185 79/75/89
s 46
f 212/336/427 220/337/428 221/338/429 213/339/430
s 16
f 36/320/411 216/340/431 39/318/409 38/319/410
f 42/315/406 218/341/432 51/329/420 41/316/407
f 109/317/408 217/342/433 218/341/432 42/315/406
f 39/318/409 216/340/431 217/342/433 109/317/408
f 34/321/412 33/322/413 216/340/431 36/320/411
f 217/342/433 216/340/431 33/322/413 101/323/414
f 218/341/432 217/342/433 101/323/414 35/324/415
f 51/329/420 218/341/432 35/324/415 37/325/416
s 46
f 209/343/434 219/344/435 211/345/436 210/346/437
f 207/347/438 219/344/435 209/343/434 208/348/439
f 205/349/440 221/338/429 220/337/428 206/350/441
f 219/344/435 220/337/428 212/336/427 211/345/436
f 206/350/441 220/337/428 219/344/435 207/347/438
f 205/349/440 204/351/442 215/352/443 221/338/429
f 213/339/430 221/338/429 215/352/443 214/353/444
s 4
f 97/354/445 2/355/446 250/356/447 251/49/448
f 249/357/449 250/356/447 2/355/446 22/358/232
f 248/359/450 249/357/449 22/358/232 1/360/231
s 5
f 247/361/451 248/362/452 1/195/228 10/194/227
s 6
f 246/363/453 247/361/454 10/194/264 13/218/263
s 7
f 245/364/455 246/363/456 13/218/260 14/216/259
s 8
f 244/365/457 245/364/458 14/216/256 15/214/255
s 9
f 243/366/459 244/365/460 15/214/252 17/212/251
s 10
f 242/367/461 243/366/462 17/212/248 18/210/247
s 11
f 241/368/463 242/367/464 18/210/244 19/207/243
s 12
f 240/369/465 241/368/466 19/207/240 20/206/239
s 13
f 239/370/467 240/371/468 20/372/236 23/373/235
f 238/374/469 239/370/467 23/373/235 16/375/470
f 237/376/471 238/374/469 16/375/470 105/377/472
s 4
f 223/16/16 222/50/187 251/49/448 250/356/447
f 224/17/17 223/16/16 250/356/447 249/357/449
f 225/19/19 224/17/17 249/357/449 248/359/450
s 5
f 226/23/23 225/22/22 248/362/452 247/361/451
s 6
f 227/25/27 226/23/26 247/361/454 246/363/453
s 7
f 228/27/31 227/25/30 246/363/456 245/364/455
s 8
f 229/29/35 228/27/34 245/364/458 244/365/457
s 9
f 230/31/39 229/29/38 244/365/460 243/366/459
s 10
f 231/33/43 230/31/42 243/366/462 242/367/461
s 11
f 232/35/47 231/33/46 242/367/464 241/368/463
s 12
f 233/37/51 232/35/50 241/368/466 240/369/465
s 13
f 234/41/55 233/40/54 240/371/468 239/370/467
f 238/374/469 235/43/57 234/41/55 239/370/467
f 236/45/59 235/43/57 238/374/469 237/376/471
s 14
f 57/47/61 222/50/64 98/169/473 56/378/320
f 251/49/63 27/48/62 26/379/314 97/354/474
f 105/377/475 25/380/317 28/381/318 237/376/476
f 237/376/476 28/381/318 58/170/190 236/45/189
s 49
f 198/382/477 200/383/478 254/384/479 252/385/480
f 200/383/478 201/306/481 255/386/482 254/384/479
f 201/306/481 199/308/483 253/387/484 255/386/482
f 203/312/485 202/388/486 256/389/487 257/390/488
f 202/388/486 198/382/477 252/385/480 256/389/487
f 199/308/483 203/312/485 257/390/488 253/387/484
s 50
f 252/391/489 254/392/490 260/393/491 258/394/492
s off
f 254/395/493 255/396/494 261/268/495 260/397/496
s 51
f 255/396/497 253/398/498 259/265/499 261/268/500
s off
f 257/399/501 256/400/502 262/401/503 263/269/504
s 50
f 256/400/505 252/391/489 258/394/492 262/401/506
s 51
f 253/398/498 257/399/507 263/269/508 259/265/499
s 19
f 264/226/276 133/223/274 114/1/273 116/4/509
f 152/227/277 264/226/276 116/4/509 118/6/278
